<?xml version="1.0" encoding="UTF-8"?>
<svg id="Layer_1" xmlns="http://www.w3.org/2000/svg" version="1.1" viewBox="0 0 1200 320">
  <!-- Generator: Adobe Illustrator 30.1.0, SVG Export Plug-In . SVG Version: 2.1.1 Build 136)  -->
  <defs>
    <style>
      .st0, .st1 {
        fill: #ff9a1f;
      }

      .st2, .st1, .st3, .st4 {
        isolation: isolate;
      }

      .st5 {
        fill: #fff;
      }

      .st6, .st4 {
        fill: #ff7a00;
      }

      .st1 {
        opacity: .65;
      }

      .st3 {
        fill: none;
        opacity: .45;
        stroke: #6f7a86;
        stroke-width: 4px;
      }

      .st4 {
        opacity: .95;
      }
    </style>
  </defs>
  <rect x="99.2" y="68.42" width="911.55" height="184.19" rx="25.17" ry="25.17"/>
  <rect class="st3" x="111.07" y="82" width="885.84" height="156" rx="20" ry="20"/>
  <g class="st2">
    <g>
      <g class="st2">
        <g class="st2">
          <path class="st6" d="M192.3,164.43c0,6.9-2.43,12.33-7.28,16.26-4.86,3.94-11.55,5.91-20.09,5.91h-3.7l-4.68,22.34h-13.11l13.28-62.82h14.52c6.93,0,12.17,1.53,15.73,4.58,3.55,3.05,5.33,7.63,5.33,13.73ZM163.6,175.69h2.41c4.07,0,7.27-.99,9.6-2.96,2.33-1.98,3.5-4.63,3.5-7.95,0-5.16-2.79-7.73-8.38-7.73h-3.18l-3.95,18.65Z"/>
          <path class="st6" d="M216.75,208.95h-13.11l10.91-51.73h-15.12l2.36-11.09h43.4l-2.36,11.09h-15.17l-10.91,51.73Z"/>
        </g>
      </g>
      <g class="st2">
        <g class="st2">
          <path class="st5" d="M287.28,208.95h-18.99l15.82-74.97h-21.92l3.42-16.07h62.89l-3.42,16.07h-21.98l-15.82,74.97Z"/>
          <path class="st5" d="M349.11,174.02l-7.41,34.93h-18.99l19.24-91.04h22.35c9.84,0,17.23,2.12,22.17,6.35,4.94,4.23,7.41,10.44,7.41,18.62,0,6.56-1.72,12.2-5.17,16.91-3.45,4.71-8.41,8.21-14.88,10.49l16.25,38.67h-20.67l-12.89-34.93h-7.41ZM352.41,158.32h4.86c5.44,0,9.67-1.18,12.7-3.55,3.03-2.37,4.55-5.98,4.55-10.83,0-3.4-.99-5.96-2.96-7.66-1.97-1.7-5.07-2.55-9.31-2.55h-4.61l-5.23,24.6Z"/>
          <path class="st5" d="M449.49,187.28h-29.45l-10.71,21.67h-19.93l47.7-91.41h23.23l9.15,91.41h-18.49l-1.49-21.67ZM448.56,171.09l-1.62-21.8c-.42-5.44-.62-10.69-.62-15.75v-2.24c-1.83,4.98-4.09,10.25-6.79,15.82l-11.71,23.98h20.74Z"/>
          <path class="st5" d="M533.49,132.54c-5.48,0-10.41,1.68-14.79,5.04-4.38,3.36-7.9,8.31-10.55,14.85-2.66,6.54-3.99,13.57-3.99,21.08,0,6.93,1.42,12.08,4.27,15.44,2.84,3.36,7.38,5.04,13.61,5.04s13.08-1.6,21.05-4.79v16.19c-8.26,3.2-16.56,4.79-24.91,4.79-10.54,0-18.74-3.1-24.6-9.31-5.85-6.21-8.78-15-8.78-26.37s2.16-20.89,6.48-30.05c4.32-9.15,10.09-16.11,17.31-20.86,7.22-4.75,15.53-7.13,24.91-7.13,5.19,0,9.8.47,13.82,1.4,4.03.93,8.35,2.65,12.95,5.14l-7.35,15.57c-4.4-2.45-8.03-4.07-10.9-4.86-2.86-.79-5.71-1.18-8.53-1.18Z"/>
          <path class="st5" d="M626.21,208.95h-21.05l-13.14-36.86-7.78,4.36-6.79,32.5h-18.99l19.24-91.04h19.05l-9.46,43.71,9.84-12.77,25.47-30.95h22.48l-36.99,43.59,18.12,47.45Z"/>
          <path class="st5" d="M685.75,138.02c2.45,0,4.44.23,5.98.68l-4.11,18.06c-1.87-.66-3.94-1-6.23-1-4.82,0-9.04,1.9-12.67,5.7-3.63,3.8-6.22,9.25-7.75,16.35l-6.6,31.13h-18.74l14.76-69.62h14.32l-1.31,12.89h.37c6.1-9.46,13.43-14.2,21.98-14.2Z"/>
        </g>
      </g>
    </g>
  </g>
  <g>
    <circle class="st4" cx="767.23" cy="131.86" r="6.39"/>
    <circle class="st4" cx="767.23" cy="170.2" r="6.39"/>
    <g>
      <g>
        <path class="st0" d="M808.76,102.31h38.34c3.53,0,6.39,2.86,6.39,6.39h0c0,3.53-2.86,6.39-6.39,6.39h-38.34c-3.53,0-6.39-2.86-6.39-6.39h0c0-3.53,2.86-6.39,6.39-6.39Z"/>
        <path class="st0" d="M859.88,113.49h0c3.53,0,6.39,2.86,6.39,6.39v31.95c0,3.53-2.86,6.39-6.39,6.39h0c-3.53,0-6.39-2.86-6.39-6.39v-31.95c0-3.53,2.86-6.39,6.39-6.39Z"/>
        <path class="st0" d="M859.88,158.22h0c3.53,0,6.39,2.86,6.39,6.39v31.95c0,3.53-2.86,6.39-6.39,6.39h0c-3.53,0-6.39-2.86-6.39-6.39v-31.95c0-3.53,2.86-6.39,6.39-6.39Z"/>
        <path class="st0" d="M808.76,202.95h38.34c3.53,0,6.39,2.86,6.39,6.39h0c0,3.53-2.86,6.39-6.39,6.39h-38.34c-3.53,0-6.39-2.86-6.39-6.39h0c0-3.53,2.86-6.39,6.39-6.39Z"/>
        <path class="st0" d="M797.58,158.22h0c3.53,0,6.39,2.86,6.39,6.39v31.95c0,3.53-2.86,6.39-6.39,6.39h0c-3.53,0-6.39-2.86-6.39-6.39v-31.95c0-3.53,2.86-6.39,6.39-6.39Z"/>
        <path class="st0" d="M797.58,113.49h0c3.53,0,6.39,2.86,6.39,6.39v31.95c0,3.53-2.86,6.39-6.39,6.39h0c-3.53,0-6.39-2.86-6.39-6.39v-31.95c0-3.53,2.86-6.39,6.39-6.39Z"/>
        <path class="st1" d="M808.76,152.63h38.34c3.53,0,6.39,2.86,6.39,6.39h0c0,3.53-2.86,6.39-6.39,6.39h-38.34c-3.53,0-6.39-2.86-6.39-6.39h0c0-3.53,2.86-6.39,6.39-6.39Z"/>
      </g>
      <g>
        <path class="st0" d="M904.61,102.31h38.34c3.53,0,6.39,2.86,6.39,6.39h0c0,3.53-2.86,6.39-6.39,6.39h-38.34c-3.53,0-6.39-2.86-6.39-6.39h0c0-3.53,2.86-6.39,6.39-6.39Z"/>
        <path class="st0" d="M955.74,113.49h0c3.53,0,6.39,2.86,6.39,6.39v31.95c0,3.53-2.86,6.39-6.39,6.39h0c-3.53,0-6.39-2.86-6.39-6.39v-31.95c0-3.53,2.86-6.39,6.39-6.39Z"/>
        <path class="st0" d="M955.74,158.22h0c3.53,0,6.39,2.86,6.39,6.39v31.95c0,3.53-2.86,6.39-6.39,6.39h0c-3.53,0-6.39-2.86-6.39-6.39v-31.95c0-3.53,2.86-6.39,6.39-6.39Z"/>
        <path class="st0" d="M904.61,202.95h38.34c3.53,0,6.39,2.86,6.39,6.39h0c0,3.53-2.86,6.39-6.39,6.39h-38.34c-3.53,0-6.39-2.86-6.39-6.39h0c0-3.53,2.86-6.39,6.39-6.39Z"/>
        <path class="st0" d="M893.43,158.22h0c3.53,0,6.39,2.86,6.39,6.39v31.95c0,3.53-2.86,6.39-6.39,6.39h0c-3.53,0-6.39-2.86-6.39-6.39v-31.95c0-3.53,2.86-6.39,6.39-6.39Z"/>
        <path class="st0" d="M893.43,113.49h0c3.53,0,6.39,2.86,6.39,6.39v31.95c0,3.53-2.86,6.39-6.39,6.39h0c-3.53,0-6.39-2.86-6.39-6.39v-31.95c0-3.53,2.86-6.39,6.39-6.39Z"/>
        <path class="st1" d="M904.61,152.63h38.34c3.53,0,6.39,2.86,6.39,6.39h0c0,3.53-2.86,6.39-6.39,6.39h-38.34c-3.53,0-6.39-2.86-6.39-6.39h0c0-3.53,2.86-6.39,6.39-6.39Z"/>
      </g>
    </g>
  </g>
</svg>